<mxfile host="app.diagrams.net" modified="2023-06-08T00:45:58.176Z" agent="Mozilla/5.0 (Windows NT 10.0; Win64; x64) AppleWebKit/537.36 (KHTML, like Gecko) Chrome/114.0.0.0 Safari/537.36" etag="qgPE9_d9RVmDV-r-Vx4z" version="21.3.7" type="device">
  <diagram name="Page-1" id="mRrd0hszdALMGyJVXTBg">
    <mxGraphModel dx="1250" dy="689" grid="1" gridSize="10" guides="1" tooltips="1" connect="1" arrows="1" fold="1" page="1" pageScale="1" pageWidth="827" pageHeight="1169" math="0" shadow="0">
      <root>
        <mxCell id="0" />
        <mxCell id="1" parent="0" />
        <mxCell id="lXkxTT3nXg1As4evX5DL-5" style="edgeStyle=orthogonalEdgeStyle;rounded=0;orthogonalLoop=1;jettySize=auto;html=1;entryX=0;entryY=0.5;entryDx=0;entryDy=0;" edge="1" parent="1" source="lXkxTT3nXg1As4evX5DL-1" target="lXkxTT3nXg1As4evX5DL-2">
          <mxGeometry relative="1" as="geometry" />
        </mxCell>
        <mxCell id="lXkxTT3nXg1As4evX5DL-6" style="edgeStyle=orthogonalEdgeStyle;rounded=0;orthogonalLoop=1;jettySize=auto;html=1;entryX=0;entryY=0.5;entryDx=0;entryDy=0;" edge="1" parent="1" source="lXkxTT3nXg1As4evX5DL-1" target="lXkxTT3nXg1As4evX5DL-3">
          <mxGeometry relative="1" as="geometry" />
        </mxCell>
        <mxCell id="lXkxTT3nXg1As4evX5DL-1" value="관객" style="shape=umlActor;verticalLabelPosition=bottom;verticalAlign=top;html=1;outlineConnect=0;" vertex="1" parent="1">
          <mxGeometry x="50" y="210" width="30" height="60" as="geometry" />
        </mxCell>
        <mxCell id="lXkxTT3nXg1As4evX5DL-2" value="영화정보보기" style="rounded=1;whiteSpace=wrap;html=1;" vertex="1" parent="1">
          <mxGeometry x="200" y="140" width="120" height="60" as="geometry" />
        </mxCell>
        <mxCell id="lXkxTT3nXg1As4evX5DL-7" style="edgeStyle=orthogonalEdgeStyle;rounded=0;orthogonalLoop=1;jettySize=auto;html=1;entryX=0;entryY=0.5;entryDx=0;entryDy=0;entryPerimeter=0;" edge="1" parent="1" source="lXkxTT3nXg1As4evX5DL-3" target="lXkxTT3nXg1As4evX5DL-4">
          <mxGeometry relative="1" as="geometry" />
        </mxCell>
        <mxCell id="lXkxTT3nXg1As4evX5DL-3" value="관객평점매기기" style="rounded=1;whiteSpace=wrap;html=1;" vertex="1" parent="1">
          <mxGeometry x="200" y="270" width="120" height="60" as="geometry" />
        </mxCell>
        <mxCell id="lXkxTT3nXg1As4evX5DL-4" value="" style="shape=cylinder3;whiteSpace=wrap;html=1;boundedLbl=1;backgroundOutline=1;size=15;" vertex="1" parent="1">
          <mxGeometry x="510" y="190" width="110" height="100" as="geometry" />
        </mxCell>
        <mxCell id="lXkxTT3nXg1As4evX5DL-17" style="edgeStyle=orthogonalEdgeStyle;rounded=0;orthogonalLoop=1;jettySize=auto;html=1;entryX=0;entryY=0.5;entryDx=0;entryDy=0;" edge="1" parent="1" source="lXkxTT3nXg1As4evX5DL-10" target="lXkxTT3nXg1As4evX5DL-11">
          <mxGeometry relative="1" as="geometry" />
        </mxCell>
        <mxCell id="lXkxTT3nXg1As4evX5DL-18" style="edgeStyle=orthogonalEdgeStyle;rounded=0;orthogonalLoop=1;jettySize=auto;html=1;entryX=0;entryY=0.5;entryDx=0;entryDy=0;" edge="1" parent="1" source="lXkxTT3nXg1As4evX5DL-10" target="lXkxTT3nXg1As4evX5DL-12">
          <mxGeometry relative="1" as="geometry" />
        </mxCell>
        <mxCell id="lXkxTT3nXg1As4evX5DL-10" value="전문가" style="shape=umlActor;verticalLabelPosition=bottom;verticalAlign=top;html=1;outlineConnect=0;" vertex="1" parent="1">
          <mxGeometry x="50" y="470" width="30" height="60" as="geometry" />
        </mxCell>
        <mxCell id="lXkxTT3nXg1As4evX5DL-20" style="edgeStyle=orthogonalEdgeStyle;rounded=0;orthogonalLoop=1;jettySize=auto;html=1;entryX=0;entryY=0.5;entryDx=0;entryDy=0;entryPerimeter=0;" edge="1" parent="1" source="lXkxTT3nXg1As4evX5DL-11" target="lXkxTT3nXg1As4evX5DL-19">
          <mxGeometry relative="1" as="geometry" />
        </mxCell>
        <mxCell id="lXkxTT3nXg1As4evX5DL-11" value="리뷰작성하기" style="rounded=1;whiteSpace=wrap;html=1;" vertex="1" parent="1">
          <mxGeometry x="200" y="440" width="120" height="60" as="geometry" />
        </mxCell>
        <mxCell id="lXkxTT3nXg1As4evX5DL-21" style="edgeStyle=orthogonalEdgeStyle;rounded=0;orthogonalLoop=1;jettySize=auto;html=1;entryX=0;entryY=0.5;entryDx=0;entryDy=0;entryPerimeter=0;" edge="1" parent="1" source="lXkxTT3nXg1As4evX5DL-12" target="lXkxTT3nXg1As4evX5DL-19">
          <mxGeometry relative="1" as="geometry" />
        </mxCell>
        <mxCell id="lXkxTT3nXg1As4evX5DL-12" value="전문가평점매기기" style="rounded=1;whiteSpace=wrap;html=1;" vertex="1" parent="1">
          <mxGeometry x="200" y="550" width="120" height="60" as="geometry" />
        </mxCell>
        <mxCell id="lXkxTT3nXg1As4evX5DL-22" style="edgeStyle=orthogonalEdgeStyle;rounded=0;orthogonalLoop=1;jettySize=auto;html=1;entryX=0;entryY=0.5;entryDx=0;entryDy=0;" edge="1" parent="1" source="lXkxTT3nXg1As4evX5DL-13" target="lXkxTT3nXg1As4evX5DL-14">
          <mxGeometry relative="1" as="geometry" />
        </mxCell>
        <mxCell id="lXkxTT3nXg1As4evX5DL-23" style="edgeStyle=orthogonalEdgeStyle;rounded=0;orthogonalLoop=1;jettySize=auto;html=1;entryX=0;entryY=0.5;entryDx=0;entryDy=0;" edge="1" parent="1" source="lXkxTT3nXg1As4evX5DL-13" target="lXkxTT3nXg1As4evX5DL-15">
          <mxGeometry relative="1" as="geometry" />
        </mxCell>
        <mxCell id="lXkxTT3nXg1As4evX5DL-24" style="edgeStyle=orthogonalEdgeStyle;rounded=0;orthogonalLoop=1;jettySize=auto;html=1;entryX=0;entryY=0.5;entryDx=0;entryDy=0;" edge="1" parent="1" source="lXkxTT3nXg1As4evX5DL-13" target="lXkxTT3nXg1As4evX5DL-16">
          <mxGeometry relative="1" as="geometry" />
        </mxCell>
        <mxCell id="lXkxTT3nXg1As4evX5DL-13" value="관리자" style="shape=umlActor;verticalLabelPosition=bottom;verticalAlign=top;html=1;outlineConnect=0;" vertex="1" parent="1">
          <mxGeometry x="50" y="850" width="30" height="60" as="geometry" />
        </mxCell>
        <mxCell id="lXkxTT3nXg1As4evX5DL-26" style="edgeStyle=orthogonalEdgeStyle;rounded=0;orthogonalLoop=1;jettySize=auto;html=1;entryX=0;entryY=0.5;entryDx=0;entryDy=0;entryPerimeter=0;" edge="1" parent="1" source="lXkxTT3nXg1As4evX5DL-14" target="lXkxTT3nXg1As4evX5DL-25">
          <mxGeometry relative="1" as="geometry" />
        </mxCell>
        <mxCell id="lXkxTT3nXg1As4evX5DL-14" value="영화등록" style="rounded=1;whiteSpace=wrap;html=1;" vertex="1" parent="1">
          <mxGeometry x="200" y="770" width="120" height="60" as="geometry" />
        </mxCell>
        <mxCell id="lXkxTT3nXg1As4evX5DL-27" style="edgeStyle=orthogonalEdgeStyle;rounded=0;orthogonalLoop=1;jettySize=auto;html=1;entryX=0;entryY=0.5;entryDx=0;entryDy=0;entryPerimeter=0;" edge="1" parent="1" source="lXkxTT3nXg1As4evX5DL-15" target="lXkxTT3nXg1As4evX5DL-25">
          <mxGeometry relative="1" as="geometry" />
        </mxCell>
        <mxCell id="lXkxTT3nXg1As4evX5DL-15" value="영화수정" style="rounded=1;whiteSpace=wrap;html=1;" vertex="1" parent="1">
          <mxGeometry x="200" y="860" width="120" height="60" as="geometry" />
        </mxCell>
        <mxCell id="lXkxTT3nXg1As4evX5DL-28" style="edgeStyle=orthogonalEdgeStyle;rounded=0;orthogonalLoop=1;jettySize=auto;html=1;entryX=0;entryY=0.5;entryDx=0;entryDy=0;entryPerimeter=0;" edge="1" parent="1" source="lXkxTT3nXg1As4evX5DL-16" target="lXkxTT3nXg1As4evX5DL-25">
          <mxGeometry relative="1" as="geometry" />
        </mxCell>
        <mxCell id="lXkxTT3nXg1As4evX5DL-16" value="영화삭제" style="rounded=1;whiteSpace=wrap;html=1;" vertex="1" parent="1">
          <mxGeometry x="200" y="940" width="120" height="60" as="geometry" />
        </mxCell>
        <mxCell id="lXkxTT3nXg1As4evX5DL-19" value="" style="shape=cylinder3;whiteSpace=wrap;html=1;boundedLbl=1;backgroundOutline=1;size=15;" vertex="1" parent="1">
          <mxGeometry x="520" y="485" width="110" height="100" as="geometry" />
        </mxCell>
        <mxCell id="lXkxTT3nXg1As4evX5DL-25" value="" style="shape=cylinder3;whiteSpace=wrap;html=1;boundedLbl=1;backgroundOutline=1;size=15;" vertex="1" parent="1">
          <mxGeometry x="480" y="830" width="110" height="100" as="geometry" />
        </mxCell>
      </root>
    </mxGraphModel>
  </diagram>
</mxfile>
